<mxfile host="app.diagrams.net" modified="2024-04-18T19:55:39.090Z" agent="Mozilla/5.0 (X11; Linux x86_64; rv:109.0) Gecko/20100101 Firefox/115.0" etag="4YncjSGqnX8i68sK5pK9" version="24.2.5" type="device">
  <diagram name="Page-1" id="90a13364-a465-7bf4-72fc-28e22215d7a0">
    <mxGraphModel dx="1687" dy="932" grid="1" gridSize="10" guides="1" tooltips="1" connect="1" arrows="1" fold="1" page="1" pageScale="1.5" pageWidth="1169" pageHeight="826" background="none" math="0" shadow="0">
      <root>
        <mxCell id="0" style=";html=1;" />
        <mxCell id="1" style=";html=1;" parent="0" />
        <mxCell id="0KS1t0nP0OiROQ7et-3B-16" value="" style="rounded=0;whiteSpace=wrap;html=1;dashed=1;" vertex="1" parent="1">
          <mxGeometry x="450" y="320" width="780" height="410" as="geometry" />
        </mxCell>
        <mxCell id="0KS1t0nP0OiROQ7et-3B-7" style="edgeStyle=orthogonalEdgeStyle;rounded=0;orthogonalLoop=1;jettySize=auto;html=1;entryX=0;entryY=0.5;entryDx=0;entryDy=0;" edge="1" parent="1" source="0KS1t0nP0OiROQ7et-3B-1" target="0KS1t0nP0OiROQ7et-3B-5">
          <mxGeometry relative="1" as="geometry" />
        </mxCell>
        <mxCell id="0KS1t0nP0OiROQ7et-3B-1" value="Digital Encryption Accelerator (DEA)&lt;br&gt;&lt;br&gt;&lt;div&gt;Performs parallel encryption of data&lt;br&gt;&lt;br&gt;Implemented on Nexys4&lt;/div&gt;" style="whiteSpace=wrap;html=1;shadow=1;fontSize=18;fillColor=#dae8fc;strokeColor=#6c8ebf;" vertex="1" parent="1">
          <mxGeometry x="760" y="490" width="170" height="215" as="geometry" />
        </mxCell>
        <mxCell id="0KS1t0nP0OiROQ7et-3B-6" style="edgeStyle=orthogonalEdgeStyle;rounded=0;orthogonalLoop=1;jettySize=auto;html=1;entryX=0;entryY=0.5;entryDx=0;entryDy=0;" edge="1" parent="1" source="0KS1t0nP0OiROQ7et-3B-2" target="0KS1t0nP0OiROQ7et-3B-1">
          <mxGeometry relative="1" as="geometry" />
        </mxCell>
        <mxCell id="0KS1t0nP0OiROQ7et-3B-2" value="&lt;div&gt;Data input&lt;/div&gt;&lt;br&gt;&lt;div&gt;(PC or other computing/storage device)&lt;/div&gt;" style="whiteSpace=wrap;html=1;shadow=1;fontSize=18;fillColor=#fff2cc;strokeColor=#d6b656;" vertex="1" parent="1">
          <mxGeometry x="490" y="532.5" width="170" height="130" as="geometry" />
        </mxCell>
        <mxCell id="0KS1t0nP0OiROQ7et-3B-8" style="edgeStyle=orthogonalEdgeStyle;rounded=0;orthogonalLoop=1;jettySize=auto;html=1;entryX=0.5;entryY=0;entryDx=0;entryDy=0;" edge="1" parent="1" source="0KS1t0nP0OiROQ7et-3B-3" target="0KS1t0nP0OiROQ7et-3B-1">
          <mxGeometry relative="1" as="geometry" />
        </mxCell>
        <mxCell id="0KS1t0nP0OiROQ7et-3B-3" value="&lt;div&gt;Encrypt/Decrypt select&lt;/div&gt;&lt;div&gt;&lt;br&gt;&lt;/div&gt;&lt;div&gt;(Optional feature)&lt;/div&gt;" style="whiteSpace=wrap;html=1;shadow=1;fontSize=18;fillColor=#d5e8d4;strokeColor=#82b366;" vertex="1" parent="1">
          <mxGeometry x="765" y="340" width="160" height="110" as="geometry" />
        </mxCell>
        <mxCell id="0KS1t0nP0OiROQ7et-3B-5" value="Data output&lt;br&gt;&lt;br&gt;&lt;div&gt;(PC or other&lt;/div&gt;&lt;div&gt;computing/storage device)&lt;/div&gt;" style="whiteSpace=wrap;html=1;shadow=1;fontSize=18;fillColor=#fff2cc;strokeColor=#d6b656;" vertex="1" parent="1">
          <mxGeometry x="1020" y="532.5" width="170" height="130" as="geometry" />
        </mxCell>
        <mxCell id="0KS1t0nP0OiROQ7et-3B-14" value="" style="rounded=0;whiteSpace=wrap;html=1;dashed=1;" vertex="1" parent="1">
          <mxGeometry x="450" y="754.5" width="780" height="345.5" as="geometry" />
        </mxCell>
        <mxCell id="0KS1t0nP0OiROQ7et-3B-31" style="edgeStyle=orthogonalEdgeStyle;rounded=0;orthogonalLoop=1;jettySize=auto;html=1;entryX=1;entryY=0.5;entryDx=0;entryDy=0;" edge="1" parent="1" source="0KS1t0nP0OiROQ7et-3B-9" target="0KS1t0nP0OiROQ7et-3B-21">
          <mxGeometry relative="1" as="geometry">
            <Array as="points">
              <mxPoint x="1080" y="1035" />
            </Array>
          </mxGeometry>
        </mxCell>
        <mxCell id="0KS1t0nP0OiROQ7et-3B-9" value="Digital signal analyser" style="whiteSpace=wrap;html=1;shadow=1;fontSize=18;fillColor=#f8cecc;strokeColor=#b85450;" vertex="1" parent="1">
          <mxGeometry x="1020" y="850" width="120" height="60" as="geometry" />
        </mxCell>
        <mxCell id="0KS1t0nP0OiROQ7et-3B-11" style="edgeStyle=orthogonalEdgeStyle;rounded=0;orthogonalLoop=1;jettySize=auto;html=1;exitX=1;exitY=0.5;exitDx=0;exitDy=0;entryX=0;entryY=0.5;entryDx=0;entryDy=0;" edge="1" parent="1" source="0KS1t0nP0OiROQ7et-3B-1" target="0KS1t0nP0OiROQ7et-3B-9">
          <mxGeometry relative="1" as="geometry">
            <mxPoint x="980" y="600" as="sourcePoint" />
            <mxPoint x="1040" y="630" as="targetPoint" />
            <Array as="points">
              <mxPoint x="970" y="598" />
              <mxPoint x="970" y="880" />
            </Array>
          </mxGeometry>
        </mxCell>
        <mxCell id="0KS1t0nP0OiROQ7et-3B-15" value="&lt;div style=&quot;font-size: 18px;&quot;&gt;Development/Testing setup&lt;/div&gt;&lt;div style=&quot;font-size: 18px;&quot;&gt;&lt;br style=&quot;font-size: 18px;&quot;&gt;&lt;/div&gt;" style="text;html=1;align=center;verticalAlign=middle;whiteSpace=wrap;rounded=0;fontSize=18;" vertex="1" parent="1">
          <mxGeometry x="470" y="780" width="160" height="40" as="geometry" />
        </mxCell>
        <mxCell id="0KS1t0nP0OiROQ7et-3B-17" value="&lt;div style=&quot;font-size: 18px;&quot;&gt;Main system&lt;/div&gt;" style="text;html=1;align=center;verticalAlign=middle;whiteSpace=wrap;rounded=0;fontSize=18;" vertex="1" parent="1">
          <mxGeometry x="470" y="330" width="120" height="50" as="geometry" />
        </mxCell>
        <mxCell id="0KS1t0nP0OiROQ7et-3B-20" style="edgeStyle=orthogonalEdgeStyle;rounded=0;orthogonalLoop=1;jettySize=auto;html=1;entryX=0;entryY=0.5;entryDx=0;entryDy=0;" edge="1" parent="1" source="0KS1t0nP0OiROQ7et-3B-19" target="0KS1t0nP0OiROQ7et-3B-1">
          <mxGeometry relative="1" as="geometry" />
        </mxCell>
        <mxCell id="0KS1t0nP0OiROQ7et-3B-19" value="&lt;div&gt;Sample data input (microcontroller or similar)&lt;br&gt;&lt;/div&gt;&lt;div&gt;&lt;br&gt;&lt;/div&gt;&lt;div&gt;Inputs sample data in the specified format &lt;br&gt;&lt;/div&gt;" style="whiteSpace=wrap;html=1;shadow=1;fontSize=18;fillColor=#f8cecc;strokeColor=#b85450;" vertex="1" parent="1">
          <mxGeometry x="500" y="820" width="180" height="160" as="geometry" />
        </mxCell>
        <mxCell id="0KS1t0nP0OiROQ7et-3B-28" style="edgeStyle=orthogonalEdgeStyle;rounded=0;orthogonalLoop=1;jettySize=auto;html=1;entryX=0.5;entryY=1;entryDx=0;entryDy=0;" edge="1" parent="1" source="0KS1t0nP0OiROQ7et-3B-21" target="0KS1t0nP0OiROQ7et-3B-22">
          <mxGeometry relative="1" as="geometry" />
        </mxCell>
        <mxCell id="0KS1t0nP0OiROQ7et-3B-30" style="edgeStyle=orthogonalEdgeStyle;rounded=0;orthogonalLoop=1;jettySize=auto;html=1;entryX=0.5;entryY=1;entryDx=0;entryDy=0;" edge="1" parent="1" source="0KS1t0nP0OiROQ7et-3B-21" target="0KS1t0nP0OiROQ7et-3B-19">
          <mxGeometry relative="1" as="geometry" />
        </mxCell>
        <mxCell id="0KS1t0nP0OiROQ7et-3B-21" value="Development PC" style="whiteSpace=wrap;html=1;shadow=1;fontSize=18;fillColor=#fff2cc;strokeColor=#d6b656;" vertex="1" parent="1">
          <mxGeometry x="760" y="1000" width="170" height="70" as="geometry" />
        </mxCell>
        <mxCell id="0KS1t0nP0OiROQ7et-3B-23" style="edgeStyle=orthogonalEdgeStyle;rounded=0;orthogonalLoop=1;jettySize=auto;html=1;exitX=0.5;exitY=0;exitDx=0;exitDy=0;entryX=0.5;entryY=1;entryDx=0;entryDy=0;" edge="1" parent="1" source="0KS1t0nP0OiROQ7et-3B-22" target="0KS1t0nP0OiROQ7et-3B-1">
          <mxGeometry relative="1" as="geometry" />
        </mxCell>
        <mxCell id="0KS1t0nP0OiROQ7et-3B-22" value="&lt;div&gt;JTAG connector&lt;/div&gt;&lt;div&gt;&lt;br&gt;&lt;/div&gt;&lt;div&gt;(For programming)&lt;/div&gt;" style="whiteSpace=wrap;html=1;shadow=1;fontSize=18;fillColor=#f8cecc;strokeColor=#b85450;" vertex="1" parent="1">
          <mxGeometry x="775" y="800" width="140" height="120" as="geometry" />
        </mxCell>
      </root>
    </mxGraphModel>
  </diagram>
</mxfile>
